<svg width="37" height="66" viewBox="0 0 37 66" fill="none" xmlns="http://www.w3.org/2000/svg">
<path d="M4.65624 64C4.35024 64.714 3.63624 65.071 2.51424 65.071C1.39224 65.071 0.831243 64.561 0.831243 63.541C0.831243 63.337 0.933243 62.929 1.13724 62.317C7.46124 49.261 11.8472 40.03 14.2952 34.624C16.8452 29.218 19.6502 22.486 22.7102 14.428L18.7322 17.335C16.5902 18.865 14.9582 20.14 13.8362 21.16C12.7142 22.078 11.9492 22.537 11.5412 22.537C11.2352 22.537 11.0822 22.282 11.0822 21.772C11.0822 21.16 11.6432 20.395 12.7652 19.477C13.8872 18.457 16.4882 15.907 20.5682 11.827C24.7502 7.645 28.4222 4.024 31.5842 0.963995C31.8902 0.861997 32.4002 0.810997 33.1142 0.810997C33.9302 0.810997 34.7462 1.168 35.5622 1.882C36.3782 2.596 36.7862 3.361 36.7862 4.177V4.636C33.1142 9.43 27.9632 17.743 21.3332 29.575C13.8872 43.345 8.32824 54.82 4.65624 64Z" fill="#FFA959"/>
</svg>
