<svg width="67" height="69" viewBox="0 0 67 69" fill="none" xmlns="http://www.w3.org/2000/svg">
<path d="M45.7681 68.049C45.6661 68.151 45.3601 68.151 44.8501 68.049C44.4421 67.947 44.2381 67.692 44.2381 67.284C44.2381 66.876 44.5951 66.468 45.3091 66.06C47.2471 65.04 48.2161 64.071 48.2161 63.153C48.2161 61.725 46.3291 60.399 42.5551 59.175C38.8831 57.951 34.8541 57.39 30.4681 57.492C26.0821 57.492 18.0751 59.583 6.44709 63.765C5.01909 64.377 3.69309 64.683 2.46909 64.683C1.34709 64.683 0.786086 64.071 0.786086 62.847C0.786086 61.623 1.65309 60.195 3.38709 58.563C5.22309 57.033 7.11009 56.268 9.04809 56.268C15.6781 54.024 23.9401 49.638 33.8341 43.11C43.7281 36.48 51.0721 30.156 55.8661 24.138C60.6601 18.12 63.0571 13.224 63.0571 9.45C63.0571 5.37 60.5071 3.33 55.4071 3.33C50.4091 3.33 44.5951 5.574 37.9651 10.062C31.4371 14.448 27.4081 19.191 25.8781 24.291C25.5721 25.209 25.1131 25.668 24.5011 25.668C24.1951 25.668 24.0421 25.413 24.0421 24.903C25.1641 17.967 28.6831 12.204 34.5991 7.614C40.5151 3.024 47.1961 0.728999 54.6421 0.728999C58.3141 0.728999 61.2211 1.8 63.3631 3.942C65.4031 6.186 66.4231 8.991 66.4231 12.357C66.4231 17.355 64.5871 21.894 60.9151 25.974C57.2431 29.952 52.8061 33.573 47.6041 36.837C46.0741 37.857 43.8811 39.234 41.0251 40.968C30.5191 47.19 23.8381 51.729 20.9821 54.585C39.9541 54.585 49.4401 57.288 49.4401 62.694C49.4401 65.448 48.2161 67.233 45.7681 68.049Z" fill="#FFA959"/>
</svg>
