<svg width="68" height="70" viewBox="0 0 68 70" fill="none" xmlns="http://www.w3.org/2000/svg">
<path d="M11.3321 19.324C11.6381 13 15.2081 8.359 22.0421 5.401C28.8761 2.341 34.7921 0.810997 39.7901 0.810997C44.8901 0.810997 49.3781 1.372 53.2541 2.494C60.9041 4.636 65.4941 8.155 67.0241 13.051C67.3301 14.071 67.4831 15.04 67.4831 15.958C67.4831 19.426 65.9021 22.639 62.7401 25.597C59.5781 28.453 56.2631 30.697 52.7951 32.329C49.3271 33.859 46.2671 34.93 43.6151 35.542C41.0651 36.154 37.5461 36.868 33.0581 37.684C40.1981 37.99 45.3491 39.367 48.5111 41.815C51.7751 44.263 53.4071 47.221 53.4071 50.689C53.4071 54.157 51.6221 57.37 48.0521 60.328C41.9321 65.632 32.5481 68.794 19.9001 69.814C18.8801 69.916 17.1461 69.967 14.6981 69.967C12.2501 69.967 9.49609 69.355 6.43609 68.131C2.25409 66.397 0.163086 63.847 0.163086 60.481C0.163086 58.747 0.826086 57.064 2.15209 55.432C3.58009 53.8 5.67109 52.78 8.42509 52.372C9.54709 52.372 10.1081 52.627 10.1081 53.137C10.1081 53.545 9.49609 53.749 8.27209 53.749C7.04809 53.545 5.87509 54.157 4.75309 55.585C3.63109 56.911 3.07009 58.033 3.07009 58.951C3.07009 59.767 3.12109 60.379 3.22309 60.787C4.44709 64.765 9.49609 66.754 18.3701 66.754C26.6321 66.754 33.8741 64.714 40.0961 60.634C44.3801 57.982 46.5221 54.769 46.5221 50.995C46.5221 46.099 42.3911 42.631 34.1291 40.591C30.1511 39.571 27.1421 39.061 25.1021 39.061C23.0621 39.061 21.4301 39.061 20.2061 39.061C19.0841 39.061 18.5231 38.602 18.5231 37.684C18.5231 36.46 19.6961 35.899 22.0421 36.001C22.9601 36.001 24.9491 36.001 28.0091 36.001C31.0691 36.001 35.8121 35.236 42.2381 33.706C48.6641 32.074 53.7131 29.524 57.3851 26.056C60.7511 22.588 62.4341 19.477 62.4341 16.723C62.4341 12.847 60.3431 9.787 56.1611 7.543C52.0811 5.197 47.1341 4.024 41.3201 4.024C35.6081 4.024 29.5901 5.503 23.2661 8.461C17.0441 11.317 13.8311 14.989 13.6271 19.477C13.6271 20.395 13.3721 21.058 12.8621 21.466C12.4541 21.874 12.0461 21.874 11.6381 21.466C11.3321 20.956 11.2301 20.242 11.3321 19.324Z" fill="#FFA959"/>
</svg>
