<svg width="57" height="72" viewBox="0 0 57 72" fill="none" xmlns="http://www.w3.org/2000/svg">
<path d="M44.7765 38.307C47.2245 38.919 48.4485 39.735 48.4485 40.755C48.4485 41.673 47.9895 42.132 47.0715 42.132V41.826C46.9695 42.03 46.8165 42.132 46.6125 42.132L43.2464 41.52C40.7985 41.112 39.3195 40.908 38.8095 40.908C38.2995 40.908 37.8405 40.959 37.4325 41.061H35.5965C34.2705 43.713 31.2104 49.935 26.4164 59.727L22.5915 67.836C22.5915 67.938 21.9285 69.111 20.6025 71.355C19.3785 71.355 18.7664 70.539 18.7664 68.907C18.7664 67.275 20.7555 62.277 24.7335 53.913C28.7115 45.447 30.7005 41.112 30.7005 40.908C30.5985 40.806 30.1395 40.755 29.3235 40.755C20.0415 40.755 11.2694 42.081 3.00745 44.733C1.47745 44.733 0.712449 44.019 0.712449 42.591C0.712449 41.775 2.03845 40.449 4.69045 38.613L9.73945 35.4C11.4734 34.176 13.9214 32.493 17.0834 30.351C23.7135 25.761 28.9155 22.089 32.6895 19.335C41.0535 13.113 47.8365 6.789 53.0385 0.362997C55.0785 0.362997 56.0985 2.301 56.0985 6.177V8.472C54.7725 9.594 51.5085 14.388 46.3065 22.854C40.7985 31.422 38.0445 36.165 38.0445 37.083C39.7785 37.695 42.0225 38.103 44.7765 38.307ZM23.6625 36.165L29.0175 36.318L31.6185 36.471C32.1285 36.471 32.4345 36.522 32.5365 36.624C33.9645 36.624 38.5545 28.464 46.3065 12.144C40.3905 17.04 34.1685 21.885 27.6404 26.679C21.1125 31.473 16.9305 34.635 15.0945 36.165H23.6625Z" fill="#FFA959"/>
</svg>
