<svg width="62" height="64" viewBox="0 0 62 64" fill="none" xmlns="http://www.w3.org/2000/svg">
<path d="M61.7632 3.767C46.6672 4.379 36.6202 5.705 31.6222 7.745H30.8572L29.9392 8.051C29.3272 8.051 29.0212 8.153 29.0212 8.357C27.1852 10.499 24.8392 14.171 21.9832 19.373C27.1852 17.741 31.3672 16.925 34.5292 16.925C44.8312 16.925 49.9822 21.209 49.9822 29.777C49.9822 37.019 46.5142 44.414 39.5782 51.962C32.6422 59.408 25.0432 63.131 16.7812 63.131C12.5992 63.131 8.82516 61.805 5.45916 59.153C2.19516 56.501 0.563156 52.931 0.563156 48.443C0.563156 48.035 1.07316 46.403 2.09316 43.547C3.21516 41.099 4.03116 39.875 4.54116 39.875C5.45916 39.875 5.91816 40.385 5.91816 41.405C5.91816 41.507 5.61216 42.323 5.00016 43.853C4.49016 45.383 4.23516 46.607 4.23516 47.525C4.23516 55.481 8.16216 59.459 16.0162 59.459C20.0962 59.459 24.1252 58.286 28.1032 55.94C32.1832 53.594 35.8042 49.871 38.9662 44.771C42.2302 39.671 43.8622 35.183 43.8622 31.307C43.8622 27.329 43.0462 24.626 41.4142 23.198C39.7822 21.668 36.8242 20.903 32.5402 20.903C28.2562 20.903 22.6462 24.371 15.7102 31.307C15.2002 31.613 14.6392 31.766 14.0272 31.766C12.1912 31.766 11.2732 31.001 11.2732 29.471C11.2732 29.267 11.3752 28.859 11.5792 28.247C11.8852 27.941 12.0892 27.584 12.1912 27.176L17.0872 20.291C20.0452 15.803 21.9832 12.182 22.9012 9.428L21.3712 8.663C20.8612 8.357 20.6062 7.745 20.6062 6.827L23.6662 4.379C25.1962 3.155 26.2162 2.543 26.7262 2.543H29.0212C29.9392 2.645 31.1122 2.696 32.5402 2.696C33.9682 2.696 37.2322 2.39 42.3322 1.778C47.5342 1.064 51.4612 0.706998 54.1132 0.706998C56.8672 0.706998 59.4172 0.961998 61.7632 1.472V3.767Z" fill="#FFA959"/>
</svg>
