<svg width="43" height="43" viewBox="0 0 43 43" fill="none" xmlns="http://www.w3.org/2000/svg">
<g id="Frame 242">
<path id="Rectangle 393" d="M13.9463 3.48648H16.8517V16.2703L16.2706 16.8513H13.9463V3.48648Z" fill="#FF7300"/>
<rect id="Rectangle 394" x="3.48633" y="13.946" width="12.7838" height="2.9054" fill="#FF7300"/>
<path id="Subtract" fill-rule="evenodd" clip-rule="evenodd" d="M34.8649 13.7356L38.332 10.2276V2.1328C38.332 0.97825 37.3737 0 36.1982 0H12.7838L5.25424e-05 12.9V40.835C-0.00191192 41.1173 0.0512274 41.3973 0.156436 41.6589C0.261646 41.9205 0.416864 42.1586 0.613228 42.3597C0.809593 42.5607 1.04326 42.7207 1.30088 42.8306C1.5585 42.9405 1.83504 42.998 2.1147 43H36.2174C36.7778 43 37.3154 42.7754 37.7119 42.3755C38.1084 41.9755 38.3315 41.4331 38.332 40.8672V28.4725L34.8649 31.9805V39.5135H3.48649V13.9459L8.13514 9.2973L13.9459 3.48649H34.8649V13.7356ZM43 17.6773L39.9888 14.6351V14.6372L37.4443 17.2061L40.4699 20.2317L43 17.6773ZM38.8342 21.8831L35.8086 18.8575L23.4251 31.3599L23.4209 34.3957L26.4363 34.4L38.8342 21.8831Z" fill="#FF7300"/>
</g>
</svg>
