<svg width="79" height="32" viewBox="0 0 79 32" fill="none" xmlns="http://www.w3.org/2000/svg">
<path d="M2.15574 31.8047C1.92663 31.6766 1.74598 31.5005 1.61234 31.2778C1.47869 31.0551 1.41113 30.8091 1.41113 30.5384C1.41113 30.2677 1.47869 30.0202 1.61234 29.799C1.74598 29.5763 1.9281 29.4016 2.15574 29.2721C2.38338 29.1425 2.63599 29.08 2.90916 29.08C3.17057 29.08 3.4085 29.1382 3.62292 29.2561C3.83734 29.3725 4.00624 29.5312 4.1296 29.7306L3.78447 29.9824C3.68313 29.8252 3.55977 29.7044 3.4129 29.6214C3.26604 29.537 3.09861 29.4948 2.91209 29.4948C2.7197 29.4948 2.54493 29.5399 2.38778 29.6301C2.23064 29.7204 2.10727 29.8441 2.01915 30.0042C1.92957 30.1643 1.88551 30.3419 1.88551 30.5384C1.88551 30.7349 1.92957 30.9139 2.01915 31.0725C2.10874 31.2327 2.23064 31.3564 2.38778 31.4466C2.54493 31.5369 2.7197 31.582 2.91209 31.582C3.09861 31.582 3.26604 31.5398 3.4129 31.4553C3.55977 31.3709 3.68313 31.2501 3.78447 31.0944L4.1296 31.3462C4.00917 31.5456 3.84175 31.7042 3.62732 31.8207C3.4129 31.9371 3.17351 31.9968 2.90916 31.9968C2.63599 31.9968 2.38485 31.9328 2.15574 31.8047Z" fill="#757575"/>
<path d="M6.73509 31.4783H5.45296L5.25029 31.9484H4.7627L6.01839 29.0781H6.17407L7.42976 31.9484H6.93777L6.73509 31.4783ZM6.09623 29.9209L5.61745 31.0882H6.57207L6.09623 29.9209Z" fill="#757575"/>
<path d="M10.0623 31.9506L9.2501 30.859H8.72726V31.9506H8.27051V29.127H9.31031C9.49977 29.127 9.66866 29.1633 9.81553 29.2361C9.9624 29.3089 10.0755 29.4108 10.1563 29.5418C10.237 29.6728 10.2767 29.8227 10.2767 29.9915C10.2767 30.1764 10.2282 30.3394 10.1298 30.4791C10.0314 30.6188 9.89777 30.7222 9.72888 30.7877L10.5836 31.9506H10.0623ZM8.72873 30.4573H9.30297C9.46159 30.4573 9.58495 30.4151 9.67454 30.3292C9.76413 30.2433 9.80819 30.1327 9.80819 29.9959C9.80819 29.8562 9.76413 29.7441 9.67454 29.6582C9.58495 29.5723 9.46159 29.5301 9.30297 29.5301H8.72873V30.4573Z" fill="#757575"/>
<path d="M11.3838 29.127H13.2578V29.533H11.842V30.2564H12.9082V30.6494H11.842V31.5431H13.3092V31.9492H11.3838V29.127Z" fill="#757575"/>
<path d="M15.8228 29.127H17.6527V29.533H16.2795V30.3758H17.4104V30.7862H16.2795V31.9492H15.8213V29.127H15.8228Z" fill="#757575"/>
<path d="M19.0381 31.805C18.8089 31.6769 18.6283 31.5008 18.4961 31.2781C18.3639 31.0554 18.2979 30.8095 18.2979 30.5387C18.2979 30.268 18.3654 30.0206 18.4991 29.7993C18.6327 29.5767 18.8133 29.402 19.041 29.2725C19.2686 29.1444 19.5183 29.0803 19.7915 29.0803C20.0617 29.0803 20.3128 29.1444 20.5419 29.2725C20.7725 29.4005 20.9546 29.5767 21.0883 29.7993C21.2219 30.022 21.2895 30.268 21.2895 30.5387C21.2895 30.8095 21.2219 31.0569 21.0883 31.2781C20.9546 31.4994 20.7725 31.6755 20.5419 31.805C20.3114 31.9331 20.0617 31.9972 19.7915 31.9972C19.5183 31.9972 19.2672 31.9331 19.0381 31.805ZM20.3187 31.447C20.4744 31.3567 20.5963 31.233 20.6859 31.0729C20.7755 30.9128 20.8195 30.7338 20.8195 30.5344C20.8195 30.3408 20.7755 30.1632 20.6859 30.0046C20.5963 29.8445 20.4744 29.7207 20.3187 29.6305C20.163 29.5403 19.9897 29.4951 19.7959 29.4951C19.6005 29.4951 19.4243 29.5403 19.2686 29.6305C19.113 29.7207 18.9911 29.8445 18.9044 30.0031C18.8163 30.1618 18.7722 30.3393 18.7722 30.5358C18.7722 30.7352 18.8163 30.9157 18.9044 31.0744C18.9925 31.2345 19.113 31.3582 19.2686 31.4484C19.4243 31.5387 19.5991 31.5838 19.7959 31.5838C19.9883 31.5823 20.163 31.5372 20.3187 31.447Z" fill="#757575"/>
<path d="M24.0208 31.9506L23.2086 30.859H22.6858V31.9506H22.2275V29.127H23.2673C23.4568 29.127 23.6257 29.1633 23.7726 29.2361C23.9194 29.3089 24.0325 29.4108 24.1133 29.5418C24.1941 29.6728 24.2337 29.8227 24.2337 29.9915C24.2337 30.1764 24.1852 30.3394 24.0868 30.4791C23.9884 30.6188 23.8548 30.7222 23.6859 30.7877L24.5407 31.9506H24.0208ZM22.6858 30.4573H23.26C23.4186 30.4573 23.542 30.4151 23.6316 30.3292C23.7212 30.2433 23.7652 30.1327 23.7652 29.9959C23.7652 29.8562 23.7212 29.7441 23.6316 29.6582C23.542 29.5723 23.4186 29.5301 23.26 29.5301H22.6858V30.4573Z" fill="#757575"/>
<path d="M26.9439 29.127H28.7738V29.533H27.4006V30.3758H28.5315V30.7862H27.4006V31.9492H26.9424V29.127H26.9439Z" fill="#757575"/>
<path d="M30.1475 31.856C29.9698 31.7614 29.8317 31.6246 29.7304 31.4456C29.629 31.2665 29.5791 31.054 29.5791 30.8081V29.127H30.0373V30.8386C30.0373 31.0788 30.1049 31.2622 30.2385 31.3903C30.3722 31.5184 30.544 31.5824 30.754 31.5824C30.9611 31.5824 31.1315 31.5184 31.2636 31.3903C31.3958 31.2622 31.4619 31.0773 31.4619 30.8386V29.127H31.9201V30.8081C31.9201 31.054 31.8702 31.2665 31.7689 31.4456C31.6675 31.6246 31.5295 31.7614 31.3518 31.856C31.1741 31.9506 30.9758 31.9972 30.754 31.9972C30.5264 31.9972 30.3237 31.9506 30.1475 31.856Z" fill="#757575"/>
<path d="M33.667 29.533H32.708V29.127H35.0872V29.533H34.1253V31.9506H33.667V29.533Z" fill="#757575"/>
<path d="M36.4404 31.856C36.2627 31.7614 36.1247 31.6246 36.0233 31.4456C35.922 31.2665 35.8721 31.054 35.8721 30.8081V29.127H36.3303V30.8386C36.3303 31.0788 36.3978 31.2622 36.5315 31.3903C36.6651 31.5184 36.837 31.5824 37.047 31.5824C37.2541 31.5824 37.4244 31.5184 37.5566 31.3903C37.6888 31.2622 37.7549 31.0773 37.7549 30.8386V29.127H38.2131V30.8081C38.2131 31.054 38.1632 31.2665 38.0618 31.4456C37.9605 31.6246 37.8224 31.7614 37.6447 31.856C37.467 31.9506 37.2688 31.9972 37.047 31.9972C36.8193 31.9972 36.6181 31.9506 36.4404 31.856Z" fill="#757575"/>
<path d="M41.0745 31.9506L40.2623 30.859H39.7395V31.9506H39.2812V29.127H40.3211C40.5105 29.127 40.6794 29.1633 40.8263 29.2361C40.9731 29.3089 41.0862 29.4108 41.167 29.5418C41.2478 29.6728 41.2874 29.8227 41.2874 29.9915C41.2874 30.1764 41.239 30.3394 41.1406 30.4791C41.0422 30.6188 40.9085 30.7222 40.7396 30.7877L41.5944 31.9506H41.0745ZM39.7409 30.4573H40.3152C40.4738 30.4573 40.5972 30.4151 40.6867 30.3292C40.7763 30.2433 40.8204 30.1327 40.8204 29.9959C40.8204 29.8562 40.7763 29.7441 40.6867 29.6582C40.5972 29.5723 40.4738 29.5301 40.3152 29.5301H39.7409V30.4573Z" fill="#757575"/>
<path d="M42.3994 29.127H44.2734V29.533H42.8576V30.2564H43.9239V30.6494H42.8576V31.5431H44.3248V31.9492H42.3994V29.127Z" fill="#757575"/>
<path d="M47.4052 31.805C47.1761 31.6769 46.9955 31.5008 46.8633 31.2781C46.7311 31.0554 46.665 30.8095 46.665 30.5387C46.665 30.268 46.7311 30.0206 46.8633 29.7993C46.9955 29.5781 47.1776 29.402 47.4067 29.2725C47.6373 29.1444 47.8899 29.0803 48.166 29.0803C48.4127 29.0803 48.6374 29.1313 48.8386 29.2346C49.0398 29.3379 49.2087 29.482 49.3439 29.6713L49.0119 29.9405C48.799 29.6436 48.5155 29.4951 48.1616 29.4951C47.9633 29.4951 47.7856 29.5403 47.6299 29.6305C47.4743 29.7207 47.3538 29.8445 47.2672 30.0031C47.1805 30.1618 47.1379 30.3393 47.1379 30.5358C47.1379 30.7352 47.182 30.9157 47.2716 31.0773C47.3612 31.2388 47.4845 31.364 47.6432 31.4557C47.8018 31.5474 47.9824 31.5925 48.1866 31.5925C48.3731 31.5925 48.5405 31.5547 48.6859 31.479C48.8313 31.4033 48.9488 31.2985 49.0384 31.1646V30.8604H48.1616V30.4587H49.4951V31.2548C49.3688 31.4805 49.1867 31.6609 48.9517 31.7963C48.7153 31.9317 48.4539 32.0001 48.166 32.0001C47.887 31.9972 47.6343 31.9331 47.4052 31.805Z" fill="#757575"/>
<path d="M50.4453 29.127H52.3193V29.533H50.9035V30.2564H51.9698V30.6494H50.9035V31.5431H52.3707V31.9492H50.4453V29.127Z" fill="#757575"/>
<path d="M55.6399 29.1269V31.9972H55.4842L53.7483 30.038V31.9506H53.29V29.0803H53.4501L55.1817 31.0307V29.1269H55.6399Z" fill="#757575"/>
<path d="M56.751 29.127H58.625V29.533H57.2092V30.2564H58.2754V30.6494H57.2092V31.5431H58.6764V31.9492H56.751V29.127Z" fill="#757575"/>
<path d="M61.3879 31.9506L60.5758 30.859H60.0529V31.9506H59.5947V29.127H60.6345C60.824 29.127 60.9929 29.1633 61.1397 29.2361C61.2866 29.3089 61.3997 29.4108 61.4805 29.5418C61.5612 29.6728 61.6009 29.8227 61.6009 29.9915C61.6009 30.1764 61.5524 30.3394 61.454 30.4791C61.3556 30.6188 61.222 30.7222 61.0531 30.7877L61.9079 31.9506H61.3879ZM60.0544 30.4573H60.6287C60.7873 30.4573 60.9106 30.4151 61.0002 30.3292C61.0898 30.2433 61.1339 30.1327 61.1339 29.9959C61.1339 29.8562 61.0898 29.7441 61.0002 29.6582C60.9106 29.5723 60.7873 29.5301 60.6287 29.5301H60.0544V30.4573Z" fill="#757575"/>
<path d="M64.4148 31.4783H63.1326L62.93 31.9484H62.4424L63.6981 29.0781H63.8538L65.1094 31.9484H64.6174L64.4148 31.4783ZM63.7759 29.9209L63.2971 31.0882H64.2518L63.7759 29.9209Z" fill="#757575"/>
<path d="M66.2994 29.533H65.3418V29.127H67.721V29.533H66.759V31.9506H66.3008V29.533H66.2994Z" fill="#757575"/>
<path d="M68.5322 29.127H68.9904V31.9506H68.5322V29.127Z" fill="#757575"/>
<path d="M70.667 31.805C70.4378 31.6769 70.2572 31.5008 70.125 31.2781C69.9928 31.0554 69.9268 30.8095 69.9268 30.5387C69.9268 30.268 69.9943 30.0206 70.128 29.7993C70.2616 29.5781 70.4423 29.402 70.6699 29.2725C70.8975 29.1429 71.1472 29.0803 71.4204 29.0803C71.6906 29.0803 71.9418 29.1444 72.1709 29.2725C72.4 29.4005 72.5835 29.5767 72.7172 29.7993C72.8508 30.022 72.9184 30.268 72.9184 30.5387C72.9184 30.8095 72.8508 31.0569 72.7172 31.2781C72.5835 31.4994 72.4014 31.6755 72.1709 31.805C71.9403 31.9331 71.6906 31.9972 71.4204 31.9972C71.1472 31.9972 70.8961 31.9331 70.667 31.805ZM71.9462 31.447C72.1018 31.3567 72.2237 31.233 72.3133 31.0729C72.4029 30.9128 72.447 30.7338 72.447 30.5344C72.447 30.3408 72.4029 30.1632 72.3133 30.0046C72.2237 29.8445 72.1018 29.7207 71.9462 29.6305C71.7905 29.5403 71.6172 29.4951 71.4233 29.4951C71.228 29.4951 71.0517 29.5403 70.8961 29.6305C70.7404 29.7207 70.6185 29.8445 70.5318 30.0031C70.4452 30.1618 70.3997 30.3393 70.3997 30.5358C70.3997 30.7352 70.4437 30.9157 70.5318 31.0744C70.62 31.2345 70.7419 31.3582 70.8961 31.4484C71.0517 31.5387 71.2265 31.5838 71.4233 31.5838C71.6172 31.5823 71.7919 31.5372 71.9462 31.447Z" fill="#757575"/>
<path d="M76.2024 29.1269V31.9972H76.0467L74.3108 30.038V31.9506H73.8525V29.0803H74.0126L75.7441 31.0307V29.1269H76.2024Z" fill="#757575"/>
<path d="M6.15805 22.3493C4.26349 21.2999 2.764 19.8604 1.65811 18.0294C0.552213 16.1998 0 14.1781 0 11.9614C0 9.72279 0.546338 7.69381 1.64048 5.87589C2.73463 4.05796 4.23412 2.62283 6.14043 1.5734C8.04674 0.523983 10.1513 0 12.4586 0C14.5059 0 16.3696 0.438108 18.0527 1.31141C19.7343 2.18617 21.1412 3.41608 22.2706 5.00113L18.8824 7.76368C17.2361 5.50182 15.0713 4.37089 12.3895 4.37089C10.9077 4.37089 9.60204 4.69838 8.47264 5.35045C7.34325 6.00397 6.46647 6.90202 5.84376 8.04314C5.21958 9.18571 4.90823 10.4913 4.90823 11.9599C4.90823 13.4518 5.23133 14.7821 5.87901 15.9465C6.52521 17.1124 7.43725 18.0279 8.61364 18.6916C9.79002 19.3553 11.1427 19.6887 12.6715 19.6887C14.0124 19.6887 15.2064 19.4325 16.2536 18.9187C17.3007 18.4064 18.1525 17.7063 18.8119 16.8198V14.9321H12.3881V10.8421H23.5748V17.6626C22.5159 19.5285 21.0046 21.0379 19.0396 22.1921C17.0745 23.3463 14.8804 23.9242 12.4571 23.9242C10.1513 23.9242 8.05261 23.3987 6.15805 22.3493Z" fill="#1A1E4E"/>
<path d="M27.7021 0.4198H32.4665V23.5042H27.7021V0.4198Z" fill="#1A1E4E"/>
<path d="M43.6843 4.68735H36.2383V0.4198H55.9314V4.68735H48.4501V23.5042H43.6858V4.68735H43.6843Z" fill="#1A1E4E"/>
<path d="M53.7031 23.7145L64.0791 0.210938H65.6667L76.078 23.7145H70.6778L64.8546 9.72559L59.0666 23.7159H53.7031V23.7145Z" fill="#1A1E4E"/>
<path d="M72.0812 20.7221L62.582 20.7556L71.1105 15.7501L72.0812 20.7221Z" fill="#292CA1"/>
<path d="M78.0027 13.9575L72.0841 20.7227L71.1133 15.7507L78.0027 13.9575Z" fill="#0099E9"/>
<path d="M71.1105 15.7507L62.582 20.7562L69.0867 13.9575L71.1105 15.7507Z" fill="#7369FD"/>
<path d="M77.9992 13.9575L71.1097 15.7507L69.0859 13.9575H77.9992Z" fill="#6FDAFF"/>
</svg>
