<svg width="84" height="30" viewBox="0 0 84 30" fill="none" xmlns="http://www.w3.org/2000/svg">
<path d="M10.4437 20.9877H5.20762L0 6.53174H4.41311L7.94361 17.5121L11.4741 6.53174H15.652L10.4437 20.9877Z" fill="#EC1B2E"/>
<path d="M23.1579 6.11377C28.1886 6.11377 30.5131 9.53287 30.5131 13.7587C30.5131 14.0919 30.484 14.5925 30.484 14.5925H19.6566C19.8328 16.8166 20.8334 18.4843 23.3043 18.4843C25.8051 18.4843 26.2464 16.2602 26.2464 16.2602H30.3653C30.3653 16.2602 29.4827 21.4028 23.1572 21.4028C18.0086 21.4028 15.5078 17.9837 15.5078 13.7579C15.5085 9.53287 18.1265 6.11377 23.1579 6.11377ZM19.7745 12.091H26.2762C26.0112 10.3117 25.1875 9.033 23.1579 9.033C21.1283 9.033 20.127 10.3117 19.7745 12.091Z" fill="#EC1B2E"/>
<path d="M31.8327 6.5307H35.8045V8.89353H35.9516C35.9516 8.89353 37.2756 6.11377 40.659 6.11377C44.925 6.11377 46.1011 8.7548 46.1011 12.0902V20.9859H41.9822V12.9248C41.9822 10.4232 41.2467 9.3112 39.3343 9.3112C37.1278 9.3112 35.9509 10.562 35.9509 13.4812V20.9866H31.832V6.5307H31.8327Z" fill="#EC1B2E"/>
<path d="M55.2223 6.11377C60.2529 6.11377 63.018 9.53287 63.018 13.7587C63.018 17.9845 60.2529 21.4036 55.2223 21.4036C50.1916 21.4036 47.4258 17.9845 47.4258 13.7587C47.4258 9.53287 50.1916 6.11377 55.2223 6.11377ZM55.2223 18.4843C57.8403 18.4843 58.8999 16.3718 58.8999 13.7587C58.8999 11.1455 57.841 9.033 55.2223 9.033C52.6035 9.033 51.5447 11.1455 51.5447 13.7587C51.5447 16.3718 52.6035 18.4843 55.2223 18.4843Z" fill="#EC1B2E"/>
<path d="M64.5508 29.9995L67.1176 26.2684H71.9095L69.3284 29.9995H64.5508Z" fill="#231F20"/>
<path d="M47.9883 29.9979L50.6177 26.2257H55.4089L52.8001 29.9979H47.9883Z" fill="#FBC60E"/>
<path d="M74.2216 12.3875L83.998 0H78.6838L70.5213 11.4075L67.0604 6.53065H62.1797L68.1676 14.0948L74.2216 12.3875Z" fill="#EC1B2E"/>
<path d="M65.0077 18.2276L55.625 29.9999H61.5689L70.523 16.7823L73.3173 20.8121H78.1717L73.178 14.4774L65.0077 18.2276Z" fill="#EC1B2E"/>
<path d="M7.3685 29.1506H7.11835L7.05936 28.8768C6.87815 29.1022 6.66353 29.205 6.36719 29.205C5.74395 29.205 5.31543 28.7249 5.31543 28.0195C5.31543 27.353 5.71481 26.8083 6.4013 26.8083C6.86251 26.8083 7.28961 27.0887 7.34007 27.5879H6.96272C6.9151 27.3141 6.70049 27.1467 6.39846 27.1467C5.97136 27.1467 5.70913 27.4785 5.70913 28.0129C5.70913 28.5539 5.97136 28.8791 6.41125 28.8791C6.81632 28.8791 7.01601 28.5759 7.01601 28.2316H6.41694V27.9226H7.3685V29.1506Z" fill="#231F20"/>
<path d="M10.4727 27.195H9.25964V27.8035H10.3846V28.1286H9.25964V28.8047H10.4912V29.1497H8.87305V26.8566H10.4727V27.195Z" fill="#231F20"/>
<path d="M13.7257 29.1497H13.3234L12.288 27.4621V29.1497H11.9199V26.8566H12.3285L13.3512 28.5478V26.8566H13.7257V29.1497Z" fill="#231F20"/>
<path d="M17.0687 28.2593C17.0687 28.8906 16.7638 29.193 16.1648 29.193C15.5351 29.193 15.248 28.8869 15.248 28.2527V26.8544H15.6382V28.3327C15.6382 28.6872 15.8222 28.8612 16.1719 28.8612C16.6146 28.8612 16.68 28.5969 16.68 28.2072V26.8544H17.0701V28.2593H17.0687Z" fill="#231F20"/>
<path d="M19.0053 29.1498H18.6123V26.8567H19.0053V29.1498Z" fill="#231F20"/>
<path d="M22.3634 29.1503H21.9611L20.9257 27.4628V29.1503H20.5576V26.8572H20.9662L21.9889 28.5484V26.8572H22.3634V29.1503Z" fill="#231F20"/>
<path d="M25.501 27.195H24.288V27.8035H25.4136V28.1286H24.288V28.8047H25.5202V29.1497H23.9014V26.8566H25.501V27.195Z" fill="#231F20"/>
<path d="M29.8852 26.8571C30.3443 26.8571 30.6584 27.0765 30.6584 27.5559C30.6584 27.9904 30.3877 28.2679 29.9385 28.2679H29.311V29.1502H28.9209V26.8571H29.8852ZM29.3118 27.9427H29.8547C30.107 27.9427 30.2789 27.8363 30.2789 27.5654C30.2789 27.2688 30.0672 27.1918 29.8206 27.1918H29.3118V27.9427Z" fill="#231F20"/>
<path d="M33.7265 29.1487H33.3086L33.0969 28.5402H32.2171L31.9989 29.1487H31.5967L32.4537 26.8519H32.8687L33.7265 29.1487ZM32.6626 27.2711L32.3173 28.237H32.9938L32.6626 27.2711Z" fill="#231F20"/>
<path d="M36.071 26.8572C36.4704 26.8572 36.8186 27.0216 36.8186 27.495C36.8186 27.7718 36.685 27.9751 36.4512 28.0588C36.7348 28.1234 36.7625 28.3451 36.781 28.5807C36.803 28.8545 36.8087 29.0475 36.8996 29.151H36.4818C36.4249 29.0637 36.4221 28.9059 36.4093 28.6937C36.3873 28.3333 36.3006 28.2041 35.9232 28.2041H35.4051V29.151H35.0186V26.8579H36.071V26.8572ZM35.4059 27.9039H35.9204C36.1762 27.9039 36.4313 27.865 36.4313 27.5369C36.4313 27.2337 36.2039 27.186 35.9701 27.186H35.4059V27.9039Z" fill="#231F20"/>
<path d="M39.8438 27.205H39.1367V29.1502H38.7466V27.205H38.0381V26.8571H39.8438V27.205Z" fill="#231F20"/>
<path d="M42.4168 27.5337C42.3919 27.2467 42.2079 27.1307 41.9336 27.1307C41.6678 27.1307 41.5093 27.2496 41.5093 27.4493C41.5093 27.668 41.6458 27.6812 42.0729 27.7972C42.4502 27.897 42.8745 27.9902 42.8745 28.4835C42.8745 29.0017 42.4289 29.2021 41.9926 29.2021C41.4653 29.2021 41.0566 28.9445 41.0566 28.3903H41.4404C41.4404 28.7448 41.6991 28.8828 42.0146 28.8828C42.3145 28.8828 42.4914 28.7478 42.4914 28.5224C42.4914 28.2839 42.301 28.242 41.9741 28.1554C41.5029 28.0299 41.1384 27.9491 41.1384 27.4823C41.1384 27.0734 41.4589 26.8121 41.9585 26.8121C42.4104 26.8121 42.7693 27.0213 42.7878 27.5337H42.4168Z" fill="#231F20"/>
</svg>
