<svg width="63" height="43" viewBox="0 0 63 43" fill="none" xmlns="http://www.w3.org/2000/svg">
<path d="M2.23664 9.3418L1.73047 13.3829C4.78395 15.3582 7.53292 17.9343 10.0926 20.8849C12.9568 17.8891 15.8415 15.3212 18.751 13.3335L18.1501 9.3418H2.23664Z" fill="white"/>
<path d="M10.1111 17.5979C7.65428 14.4621 5.26746 12.4086 1.786 10.2152C2.5185 6.09176 1.23868 4.00535 0 0.00537109C3.50616 2.55268 7.13164 5.57324 10.0987 8.53207C13.1357 5.20699 16.8394 2.24816 20.1974 0.00537109C19.2262 4.24815 17.5925 6.09176 18.4114 10.1782C14.9629 12.3716 12.7407 14.4621 10.1111 17.5979Z" fill="#FF7300"/>
<path d="M10.0946 21.5719L9.76537 21.1768C7.12341 18.0246 4.44443 15.6337 1.32922 13.6501L1.06172 13.4773L1.14815 13.1687C2.25102 9.21394 1.34156 4.85594 0.30864 1.11522L0 0L0.962956 0.641971C4.14813 2.76953 7.22218 5.42384 10.0987 8.52671C12.9752 5.42384 16.0493 2.76953 19.2345 0.641971L20.1974 0L19.8888 1.11522C18.8518 4.85594 17.9423 9.21394 19.0493 13.1687L19.1357 13.4773L18.8682 13.6501C15.753 15.6337 13.074 18.0246 10.432 21.1768L10.0946 21.5719ZM2.0576 13.0987C5.0082 15.0164 7.5761 17.2962 10.0946 20.2386C12.6131 17.2962 15.181 15.0164 18.1316 13.0987C17.2016 9.42794 17.8518 5.51438 18.753 2.02057C15.8477 4.07405 13.0452 6.57198 10.4115 9.46086L10.0946 9.81065L9.77773 9.46086C7.144 6.57198 4.34154 4.07405 1.4362 2.02057C2.33743 5.51026 2.98764 9.42794 2.0576 13.0987Z" fill="#FF7300"/>
<path d="M10.1115 17.5964C9.40784 16.7116 8.87286 16.1026 8.28027 15.4482L11.9798 15.477C11.2803 16.2137 10.8029 16.7692 10.1115 17.5964Z" fill="#252429"/>
<path d="M32.1382 15.7041C31.6814 15.4243 31.097 15.2844 30.3728 15.2844C28.1341 15.2844 27.2205 16.6836 27.2205 18.9181V25.8687H24.0312V12.8811H27.2205V14.8646C27.7679 13.2391 29.5333 12.626 30.8789 12.626C31.9324 12.626 32.8378 12.8029 33.6114 13.1486L32.1382 15.7041Z" fill="white"/>
<path d="M44.8938 22.1084L46.8238 24.0261C45.26 25.5652 43.2765 26.1248 40.8485 26.1248C36.3753 26.1248 33.9844 23.2277 33.9844 19.3759C33.9844 15.5487 36.3753 12.627 40.8485 12.627C45.3341 12.627 47.9514 15.4376 47.7127 20.6228H37.4288C37.4288 21.5487 38.256 23.4705 40.8485 23.4705C42.795 23.4705 44.0296 22.8327 44.8938 22.1084ZM44.2724 18.1207C44.2724 17.1784 43.4699 15.2854 40.8527 15.2854C38.2354 15.2854 37.4329 17.1784 37.4329 18.1207H44.2724Z" fill="white"/>
<path d="M63.0001 25.8729H59.8109V23.7C58.9961 25.3379 56.9755 26.128 55.3747 26.128C51.3582 26.128 48.9961 23.2185 48.9961 19.3791C48.9961 15.5519 51.3582 12.6301 55.3747 12.6301C56.9755 12.6301 58.9961 13.4202 59.8109 15.0581V6.60547H63.0001V25.8729ZM59.8109 19.3749C59.8109 17.2392 58.7285 15.2968 56.0372 15.2968C53.3417 15.2968 52.2636 17.2433 52.2636 19.3749C52.2636 21.5066 53.3459 23.4531 56.0372 23.4531C58.7285 23.4572 59.8109 21.5107 59.8109 19.3749Z" fill="white"/>
<path d="M15.5077 29.4234H19.2197V32.0818H15.5077V42.4151H12.3185V32.0818H9.81641V29.4234H12.3185C12.3555 25.193 13.2979 22.8926 17.0962 22.8926C18.2649 22.8926 19.195 23.0448 20.1085 23.337L19.195 25.802C18.6353 25.6498 17.911 25.5469 17.3513 25.5469C15.5242 25.5469 15.5077 27.086 15.5077 29.4234Z" fill="white"/>
<path d="M27.5787 42.6658C23.1549 42.6658 20.3359 39.7564 20.3359 35.9169C20.3359 32.0898 23.159 29.168 27.5787 29.168C31.9902 29.168 34.8215 32.0527 34.8215 35.9169C34.8215 39.7811 31.9861 42.6658 27.5787 42.6658ZM27.5787 31.8264C24.7968 31.8264 23.5993 33.7852 23.5993 35.921C23.5993 38.0568 24.7927 40.0115 27.5787 40.0115C30.3647 40.0115 31.5581 38.0527 31.5581 35.921C31.5581 33.7893 30.3606 31.8264 27.5787 31.8264Z" fill="white"/>
<path d="M49.174 42.4148H45.2604L41.9313 37.9786L38.602 42.4148H34.6885L39.886 35.6659L35.0671 29.4272H38.9806L41.9313 33.3532L44.8818 29.4272H48.7954L43.9724 35.6659L49.174 42.4148Z" fill="white"/>
</svg>
