<svg width="79" height="30" viewBox="0 0 79 30" fill="none" xmlns="http://www.w3.org/2000/svg">
<path d="M66.653 6.55427C69.5149 6.55427 71.8444 8.81974 71.8444 11.6029V18.9617C71.8444 21.7448 69.5149 24.0103 66.653 24.0103C63.7912 24.0103 61.4616 21.7448 61.4616 18.9617V11.6029C61.4616 8.81974 63.7912 6.55427 66.653 6.55427ZM66.653 0.566772C60.3855 0.566772 55.3047 5.5078 55.3047 11.6029V18.9617C55.3047 25.0568 60.3855 29.9978 66.653 29.9978C72.9205 29.9978 78.0014 25.0568 78.0014 18.9617V11.6029C78.0014 5.5078 72.9205 0.566772 66.653 0.566772Z" fill="#002E70"/>
<path d="M0.615229 8.93176H5.90574C6.24677 8.93176 6.52097 9.20066 6.52097 9.53006V24.2568C6.52097 27.4276 3.87571 30 0.615229 30C0.276508 30 0 29.7334 0 29.4017V9.53006C0 9.20066 0.276508 8.93176 0.615229 8.93176Z" fill="#002E70"/>
<path d="M26.328 28.1677C26.434 28.4388 26.328 28.7458 26.0722 28.8959C25.5192 29.2186 24.8763 29.4718 24.1413 29.6533C23.2081 29.8841 22.2242 29.9984 21.1942 29.9984C18.519 29.9984 16.4498 29.3351 14.9866 28.0063C13.5234 26.6798 12.793 24.728 12.793 22.1533V1.16568C12.793 0.836282 13.0695 0.567383 13.4082 0.567383H18.6987C19.0374 0.567383 19.3139 0.836282 19.3139 1.16568V8.93015H24.3003C24.639 8.93015 24.9155 9.19905 24.9155 9.52846V13.2101C24.9155 13.5395 24.639 13.8084 24.3003 13.8084H19.3162V22.0704C19.3162 22.9914 19.5605 23.7039 20.0467 24.2036C20.5329 24.7056 21.2241 24.9566 22.1159 24.9566C22.8855 24.9566 23.5698 24.8064 24.1689 24.5039C24.4915 24.3403 24.8879 24.4949 25.0169 24.8243L26.328 28.1677Z" fill="#002E70"/>
<path d="M0.615229 6.90697C0.276508 6.90697 0 6.63807 0 6.30867V1.16373C0 0.832088 0.276508 0.56543 0.615229 0.56543H5.90574C6.24677 0.56543 6.52097 0.832088 6.52097 1.16373C6.52097 4.3345 3.87571 6.90697 0.615229 6.90697Z" fill="#20E09B"/>
<path d="M51.7497 14.4057V18.959C51.7497 22.0066 50.4801 24.7673 48.427 26.7638C46.3901 28.7447 43.5836 29.9772 40.4821 29.9974C34.1938 30.0399 29.0508 24.8793 29.0508 18.7641V11.7906C29.0508 5.68886 34.1846 0.534957 40.459 0.564088C45.2518 0.588737 49.3441 3.50181 50.9824 7.60701C51.1069 7.92072 50.9387 8.27253 50.6115 8.38682L45.9684 9.99125C45.662 10.0966 45.3163 9.95988 45.1919 9.66857C44.3854 7.77507 42.4245 6.46195 40.1664 6.5583C37.3714 6.67706 35.2054 8.99184 35.2054 11.7122V18.8358C35.2054 21.5696 37.3875 23.9023 40.1963 24.0076C43.1504 24.1174 45.5882 21.8094 45.5882 18.9613V18.6857H41.0166C40.6756 18.6857 40.4014 18.4168 40.4014 18.0874V14.4057C40.4014 14.0763 40.6756 13.8074 41.0166 13.8074H51.1322C51.4732 13.8074 51.7497 14.074 51.7497 14.4057Z" fill="#002E70"/>
</svg>
