<svg width="64" height="43" viewBox="0 0 64 43" fill="none" xmlns="http://www.w3.org/2000/svg">
<path d="M2.27204 9.41425L1.75781 13.487C4.85985 15.4778 7.65254 18.0741 10.2529 21.0478C13.1626 18.0285 16.0933 15.4405 19.049 13.4373L18.4386 9.41425H2.27204Z" fill="white"/>
<path d="M10.2718 17.7347C7.776 14.5744 5.35122 12.5048 1.8144 10.2942C2.55855 6.13851 1.25837 4.03576 0 0.00445557C3.56191 2.57172 7.24505 5.61593 10.2593 8.59793C13.3446 5.24681 17.1072 2.26481 20.5186 0.00445557C19.532 4.28046 17.8723 6.1385 18.7042 10.2569C15.2008 12.4675 12.9433 14.5744 10.2718 17.7347Z" fill="#FF7300"/>
<path d="M10.2551 21.7408L9.92066 21.3427C7.23669 18.1658 4.5151 15.7561 1.35035 13.757L1.0786 13.5828L1.1664 13.2718C2.28682 9.2861 1.36289 4.89397 0.313548 1.12395L0 0L0.978269 0.646998C4.21409 2.79122 7.33702 5.46631 10.2593 8.59348C13.1816 5.46631 16.3045 2.79122 19.5403 0.646998L20.5186 0L20.2051 1.12395C19.1515 4.89397 18.2276 9.2861 19.3522 13.2718L19.44 13.5828L19.1682 13.757C16.0035 15.7561 13.2819 18.1658 10.5979 21.3427L10.2551 21.7408ZM2.09032 13.2013C5.08784 15.134 7.69658 17.4317 10.2551 20.3971C12.8137 17.4317 15.4224 15.134 18.4199 13.2013C17.4751 9.50177 18.1356 5.55756 19.0512 2.03639C16.0997 4.10596 13.2526 6.62345 10.577 9.53495L10.2551 9.88748L9.93322 9.53495C7.2576 6.62345 4.41058 4.10596 1.45904 2.03639C2.3746 5.55341 3.03515 9.50177 2.09032 13.2013Z" fill="#252429"/>
<path d="M10.2705 17.7343C9.55566 16.8427 9.01217 16.2288 8.41016 15.5694L12.1686 15.5984C11.4578 16.3408 10.9729 16.9007 10.2705 17.7343Z" fill="#252429"/>
<path d="M32.6499 15.8287C32.1859 15.5467 31.5922 15.4057 30.8564 15.4057C28.5822 15.4057 27.6541 16.8158 27.6541 19.0679V26.0729H24.4141V12.9836H27.6541V14.9826C28.2101 13.3444 30.0036 12.7264 31.3706 12.7264C32.4409 12.7264 33.3606 12.9048 34.1466 13.2532L32.6499 15.8287Z" fill="#252429"/>
<path d="M45.6102 22.2821L47.5709 24.2148C45.9823 25.766 43.9672 26.33 41.5007 26.33C36.9563 26.33 34.5273 23.4102 34.5273 19.5282C34.5273 15.6711 36.9563 12.7264 41.5007 12.7264C46.0576 12.7264 48.7164 15.5591 48.474 20.7849H38.0265C38.0265 21.7181 38.8668 23.6549 41.5007 23.6549C43.4781 23.6549 44.7323 23.0121 45.6102 22.2821ZM44.979 18.2633C44.979 17.3135 44.1637 15.4057 41.5048 15.4057C38.846 15.4057 38.0307 17.3135 38.0307 18.2633H44.979Z" fill="#252429"/>
<path d="M64.0002 26.0754H60.7602V23.8856C59.9324 25.5363 57.8797 26.3326 56.2534 26.3326C52.1731 26.3326 49.7734 23.4003 49.7734 19.5308C49.7734 15.6737 52.1731 12.729 56.2534 12.729C57.8797 12.729 59.9324 13.5253 60.7602 15.176V6.65717H64.0002V26.0754ZM60.7602 19.5266C60.7602 17.3741 59.6607 15.4165 56.9265 15.4165C54.1882 15.4165 53.0929 17.3783 53.0929 19.5266C53.0929 21.675 54.1924 23.6367 56.9265 23.6367C59.6607 23.6409 60.7602 21.6792 60.7602 19.5266Z" fill="#252429"/>
<path d="M15.7545 29.6531H19.5254V32.3323H15.7545V42.7465H12.5145V32.3323H9.97266V29.6531H12.5145C12.5521 25.3895 13.5095 23.0711 17.3682 23.0711C18.5555 23.0711 19.5003 23.2246 20.4285 23.519L19.5004 26.0033C18.9318 25.8499 18.196 25.7462 17.6274 25.7462C15.7712 25.7462 15.7545 27.2973 15.7545 29.6531Z" fill="#252429"/>
<path d="M28.0181 43.0004C23.5239 43.0004 20.6602 40.0682 20.6602 36.1986C20.6602 32.3415 23.5281 29.3969 28.0181 29.3969C32.4998 29.3969 35.376 32.3042 35.376 36.1986C35.376 40.0931 32.4956 43.0004 28.0181 43.0004ZM28.0181 32.0761C25.192 32.0761 23.9754 34.0503 23.9754 36.2028C23.9754 38.3553 25.1878 40.3253 28.0181 40.3253C30.8484 40.3253 32.0608 38.3512 32.0608 36.2028C32.0608 34.0544 30.8442 32.0761 28.0181 32.0761Z" fill="#252429"/>
<path d="M49.9581 42.7457H45.9823L42.6001 38.2748L39.218 42.7457H35.2422L40.5223 35.9439L35.6268 29.6564H39.6026L42.6001 33.6131L45.5977 29.6564H49.5735L44.6737 35.9439L49.9581 42.7457Z" fill="#252429"/>
</svg>
