<svg width="78" height="39" viewBox="0 0 78 39" fill="none" xmlns="http://www.w3.org/2000/svg">
<path fill-rule="evenodd" clip-rule="evenodd" d="M70.679 13.9023V12.1559H71.3921C71.5862 12.1559 71.7169 12.1559 71.8139 12.1901C71.8774 12.2243 71.9446 12.2888 72.008 12.3534C72.0416 12.4521 72.0752 12.5508 72.0752 12.6495C72.0752 12.7785 72.0416 12.8773 71.9782 12.976C71.8811 13.0405 71.784 13.1088 71.6235 13.143C71.6907 13.1734 71.7542 13.2075 71.8176 13.2759C71.8512 13.3404 71.9147 13.4049 72.0118 13.572L72.2059 13.9023H71.8176L71.5601 13.5074C71.463 13.3746 71.3958 13.31 71.3659 13.2797C71.3361 13.2455 71.3025 13.2113 71.2689 13.181H71.1084H71.0412V13.9061H70.679V13.9023ZM71.0038 12.881H71.2614H71.5862C71.6198 12.8507 71.6534 12.8507 71.6833 12.7823C71.7131 12.7482 71.7131 12.7178 71.7131 12.6533C71.7131 12.6191 71.7131 12.5546 71.6833 12.5204C71.6497 12.4862 71.5862 12.4521 71.5526 12.4521H71.2913H71.0001V12.881H71.0038ZM71.3286 11.2676C71.8139 11.2676 72.2357 11.465 72.5605 11.7611C72.8853 12.0914 73.0794 12.5508 73.0794 13.0139C73.0794 13.5074 72.8853 13.9706 72.5605 14.2667C72.2693 14.5932 71.8139 14.7906 71.3286 14.7906C70.8732 14.7906 70.4215 14.5932 70.1303 14.2667C69.8055 13.9706 69.6114 13.5074 69.6114 13.0481C69.6114 12.5546 69.8055 12.0914 70.0967 11.7953C70.4215 11.465 70.8396 11.2676 71.3286 11.2676ZM72.3627 11.9585C72.1014 11.6928 71.7467 11.5295 71.3249 11.5295C70.9366 11.5295 70.5484 11.6928 70.2871 11.9585C70.0295 12.2546 69.869 12.6191 69.869 13.0443C69.869 13.4391 70.0295 13.8339 70.2871 14.0997C70.5484 14.3654 70.9366 14.5287 71.3249 14.5287C71.743 14.5287 72.1014 14.3654 72.3925 14.0997C72.6539 13.8036 72.8144 13.4429 72.8144 13.0139C72.8181 12.6153 72.6539 12.2205 72.3627 11.9585ZM62.7761 25.2002C61.0589 25.8912 59.5059 25.5609 59.5358 23.9816C59.5694 22.1366 61.966 18.2833 61.9324 16.3395C63.3584 16.3737 64.5232 16.8672 64.6538 17.4253C65.2063 16.7344 65.8522 16.3395 66.6286 16.3395C67.7934 16.275 68.5064 16.9014 68.54 17.9226C68.6034 19.5361 66.0463 20.6864 66.0761 20.4244C66.0761 20.4244 66.1433 18.9742 65.2026 18.9742C63.8139 19.0084 62.3542 24.1145 62.7761 25.2002ZM56.2357 21.1495C56.7845 19.8967 56.9786 18.1504 56.008 18.1504C54.9702 18.1504 53.9025 19.6993 53.4471 20.6218C52.8946 21.8746 52.7341 23.6855 53.6748 23.6855C54.7089 23.6855 55.8101 22.0682 56.2357 21.1495ZM50.2739 21.1495C50.9534 18.6135 53.4807 16.3395 56.6239 16.3395C58.8265 16.2408 60.0883 18.1846 59.4088 20.6864C58.763 23.1578 56.2357 25.4964 53.0924 25.4964C50.7891 25.5951 49.6244 23.6513 50.2739 21.1495ZM42.6622 20.8838C42.371 21.9695 42.5352 23.0591 43.3117 23.0591C44.1554 23.0591 45.5143 21.1154 46.5185 19.202C46.7424 18.511 46.3243 18.1466 45.4508 18.1466C44.1181 18.1504 43.0168 19.6993 42.6622 20.8838ZM41.9491 25.4964C39.8437 25.5951 38.9029 23.6172 39.5525 21.1457C40.2021 18.6401 42.5315 16.3357 45.1223 16.3357C46.1601 16.3357 46.903 16.6318 47.2912 17.5544C48.0378 15.6448 48.7172 13.8339 48.6837 12.976C50.1097 13.0405 51.2446 13.4695 51.3715 14.0313C51.7597 15.7777 47.5488 23.1882 48.3253 25.2002C46.5782 25.8912 45.0551 25.5609 45.0849 23.9816C45.0849 23.75 45.1185 23.4539 45.2156 23.1236C44.2487 24.4448 43.1139 25.4622 41.9491 25.4964ZM34.4344 25.2002C32.7172 25.8912 31.1941 25.5609 31.1941 23.9816C31.2277 22.1366 33.6542 18.2833 33.6243 16.3395C35.0168 16.3737 36.1815 16.8672 36.3458 17.4253C36.8647 16.7344 37.5105 16.3395 38.3206 16.3395C39.4554 16.275 40.1685 16.9014 40.1983 17.9226C40.2954 19.5361 37.7046 20.6864 37.7382 20.4244C37.7382 20.4244 37.8017 18.9742 36.8647 18.9742C35.4685 19.0084 34.0126 24.1145 34.4344 25.2002ZM23.9706 20.8838C23.6458 21.9695 23.81 23.0591 24.5865 23.0591C25.3966 23.0591 26.7592 21.2786 27.7298 19.4336C28.0882 18.6098 27.6999 18.1504 26.7256 18.1504C25.3966 18.1504 24.2953 19.6993 23.9706 20.8838ZM26.4979 23.1578C25.4937 24.4751 24.3924 25.466 23.2575 25.4964C21.1185 25.5951 20.1815 23.6172 20.8273 21.1457C21.5067 18.6401 23.8063 16.3357 26.3971 16.3357C27.4349 16.3357 28.1778 16.6319 28.5361 17.524C28.6668 17.0608 28.7639 16.6356 28.7639 16.3054C30.1899 16.3737 31.321 16.7989 31.4517 17.3911C31.8399 19.1033 28.8273 23.1882 29.6075 25.2002C27.8567 25.8912 26.3373 25.5609 26.3672 23.9816C26.3709 23.7159 26.4008 23.4539 26.4979 23.1578ZM12.2449 15.7473C12.7003 14.43 14.2869 13.0443 17.6206 12.881C19.9537 12.7178 22.1227 13.8681 21.5739 15.6144C21.0214 17.262 18.8525 16.8331 18.8525 16.7685C18.7218 15.6828 18.2701 15.0867 17.363 15.0564C16.5193 14.9918 16.034 15.3221 15.8399 15.8802C15.5786 16.6053 16.1012 17.3949 17.3928 18.2187C19.9201 19.798 20.9244 22.1366 18.8488 24.1145C17.7475 25.1357 16.1908 25.5951 14.1525 25.5305C11.237 25.4622 9.81092 23.6551 10.5575 22.1062C11.3042 20.5573 13.6672 20.8192 13.6336 21.0204C13.4694 21.9771 13.6 22.7668 14.4773 23.0629C15.2239 23.3248 15.9332 22.8996 16.1945 22.501C16.5828 21.8443 16.4222 20.9521 14.3802 19.7676C12.439 18.6781 11.7596 17.2279 12.2449 15.7473ZM77.9661 14.5287C77.9661 12.4521 77.966 9.58581 76.3459 8.07106C74.9534 6.82206 72.4261 6.65502 70.6455 6.38927C67.1811 5.89575 63.7131 5.07194 60.3122 4.21776C56.5866 3.26107 52.8946 2.23985 49.1391 1.38567C45.8689 0.660567 42.371 0 39 0C35.6626 0 32.1983 0.660567 28.9281 1.38567C25.2361 2.20948 21.544 3.22691 17.8819 4.15322C14.384 5.04156 10.8189 5.89954 7.25749 6.42344C6.18982 6.55631 5.08482 6.68918 4.01716 6.91697C3.11002 7.14854 2.20287 7.44466 1.52345 8.1356C-0.0631145 9.61998 0.000348218 12.5508 0.000348218 14.559C0.000348218 17.8846 0.0339461 21.1799 0.0339461 24.4751C0.0339461 26.5176 0.000348134 29.418 1.58691 30.8986C2.29994 31.5591 3.17348 31.8894 4.08062 32.083C5.11842 32.3146 6.21595 32.4475 7.28735 32.5766C10.8823 33.1043 14.4474 33.9584 17.9789 34.8506C21.671 35.8073 25.3331 36.7943 29.055 37.6181C32.2954 38.3394 35.7597 39 39.0971 39C42.4643 39 45.966 38.3394 49.266 37.584C52.9916 36.7601 56.6837 35.7048 60.4093 34.786C63.8438 33.8977 67.3417 33.0701 70.8396 32.5766C71.8774 32.4095 72.945 32.3108 73.9828 32.083C74.89 31.8856 75.7635 31.5591 76.4765 30.8986C78.0631 29.418 77.9996 26.4872 77.9996 24.4448C77.9996 21.1153 77.9661 17.8201 77.9661 14.5287ZM70.6492 31.096C59.8941 32.6449 47.7504 37.5194 39.1008 37.5194C30.4848 37.5194 18.2067 32.6791 7.48894 31.1301C2.43059 30.405 1.48985 30.667 1.48985 24.4751C1.48985 21.1799 1.45999 17.8543 1.45999 14.559C1.42639 8.36718 2.33353 8.63292 7.48521 7.87365C18.1731 6.29436 30.384 1.48058 39 1.48058C47.616 1.48058 59.7299 6.29057 70.4513 7.87365C75.4089 8.59875 76.5064 8.3368 76.5064 14.5287C76.54 17.8239 76.54 21.1153 76.54 24.4448C76.5736 30.6366 75.6366 30.3709 70.6492 31.096Z" fill="#D10A10"/>
</svg>
