<svg width="46" height="36" viewBox="0 0 46 36" fill="none" xmlns="http://www.w3.org/2000/svg">
<path d="M10.8313 36C7.5731 36 4.93132 34.8571 2.90596 32.5714C0.968653 30.1978 0 27.1209 0 23.3407C0 18.4176 1.45298 13.8462 4.35894 9.62637C7.2649 5.31868 10.8753 2.10989 15.1902 0L15.9828 1.58241C14.1335 2.98901 12.5044 4.79121 11.0955 6.98901C9.68653 9.18681 8.67385 11.9121 8.05743 15.1648L10.8313 15.8242C13.9134 16.5275 16.291 17.8462 17.9641 19.7802C19.7253 21.6264 20.6059 23.8681 20.6059 26.5055C20.6059 29.3187 19.6372 31.6044 17.6999 33.3626C15.8507 35.1209 13.5611 36 10.8313 36ZM36.2254 36C32.9672 36 30.3254 34.8571 28.3001 32.5714C26.3628 30.1978 25.3941 27.1209 25.3941 23.3407C25.3941 18.4176 26.8471 13.8462 29.7531 9.62637C32.659 5.31868 36.2694 2.10989 40.5844 0L41.3769 1.58241C39.5276 2.98901 37.8985 4.79121 36.4896 6.98901C35.0806 9.18681 34.068 11.9121 33.4515 15.1648L36.2254 15.8242C39.3075 16.5275 41.6851 17.8462 43.3582 19.7802C45.1194 21.6264 46 23.8681 46 26.5055C46 29.3187 45.0313 31.6044 43.094 33.3626C41.2448 35.1209 38.9553 36 36.2254 36Z" fill="#FF7300"/>
</svg>
