<svg width="79" height="42" viewBox="0 0 79 42" fill="none" xmlns="http://www.w3.org/2000/svg">
<path d="M13.5616 23.0643V18.5236C13.5616 17.6004 12.8862 17.145 11.504 17.145H4.98592V18.4857H10.279C10.8444 18.4857 11.127 18.688 11.127 19.0928V21.4833H4.01198C3.21096 21.4833 2.8027 21.1923 2.8027 20.5853V16.2976C2.8027 15.7031 3.21096 15.3996 4.01198 15.3996H13.483V13.8186H2.97549C1.12209 13.8186 0.179688 14.489 0.179688 15.817V21.0659C0.179688 22.3939 1.12209 23.0643 2.97549 23.0643H13.5616ZM15.8861 23.0643H18.509V19.5607H24.0378L27.4773 23.0643H30.3832V22.9757L26.9905 19.5607C28.8753 19.4975 29.8175 18.7514 29.8175 17.3094V16.0699C29.8175 14.5649 28.7967 13.8186 26.7236 13.8186H15.8861V23.0643ZM27.2261 17.183C27.2261 17.8659 26.7863 18.2074 25.891 18.2074H18.509V15.3617H25.891C26.7863 15.3617 27.2261 15.7031 27.2261 16.3861V17.183ZM34.5452 15.3996H45.2099V13.8186H31.9222V23.0643H45.2099V21.4833H34.5452V18.4857H42.9795V17.145H34.5452V15.3996ZM49.8746 15.3996H60.5393V13.8186H47.2516V23.0643H60.5393V21.4833H49.8746V18.4857H58.3089V17.145H49.8746V15.3996ZM75.0991 13.8186V21.4327L66.5078 14.2613C66.2092 13.9577 65.7852 13.8186 65.2668 13.8186H63.9632C63.0209 13.8186 62.5496 14.1728 62.5496 14.9064V23.0643H64.8898V15.4755L73.4656 22.6216C73.7641 22.9251 74.1881 23.0643 74.7065 23.0643H76.01C76.9524 23.0643 77.4236 22.7101 77.4236 21.9765V13.8186H75.0991Z" fill="black"/>
<path d="M2.04898 25.7051H1.13826C0.37951 25.7051 0 26.0591 0 26.7927V34.9505H1.88455V28.0322L6.15941 34.5078C6.34916 34.7988 6.6147 34.9505 6.9689 34.9505H8.06925C8.41073 34.9505 8.68899 34.7988 8.86603 34.5078L13.1536 28.0195V34.9505H15.0382V26.7927C15.0382 26.0591 14.6461 25.7051 13.8872 25.7051H12.9766C12.5718 25.7051 12.2683 25.8441 12.0912 26.1477L7.51272 33.1798L2.93428 26.1477C2.76984 25.8441 2.46638 25.7051 2.04898 25.7051ZM24.9413 27.286C25.6622 27.286 26.0164 27.6148 26.0164 28.2977V32.3577C26.0164 33.0407 25.6622 33.3695 24.9413 33.3695H20.0466C19.3257 33.3695 18.9716 33.0281 18.9716 32.3577V28.2977C18.9716 27.6148 19.3257 27.286 20.0466 27.286H24.9413ZM25.6369 34.9505C27.3064 34.9505 28.1286 34.2043 28.1286 32.6992V27.9563C28.1286 26.4512 27.3064 25.7051 25.6369 25.7051H19.3511C17.6814 25.7051 16.8594 26.4512 16.8594 27.9563V32.6992C16.8594 34.2043 17.6814 34.9505 19.3511 34.9505H25.6369ZM35.7424 34.9505V27.286H40.4854V25.7051H28.8874V27.286H33.6176V34.9505H35.7424ZM49.3893 27.286C50.1102 27.286 50.4644 27.6148 50.4644 28.2977V32.3577C50.4644 33.0407 50.1102 33.3695 49.3893 33.3695H44.4946C43.7737 33.3695 43.4195 33.0281 43.4195 32.3577V28.2977C43.4195 27.6148 43.7737 27.286 44.4946 27.286H49.3893ZM50.0849 34.9505C51.7543 34.9505 52.5766 34.2043 52.5766 32.6992V27.9563C52.5766 26.4512 51.7543 25.7051 50.0849 25.7051H43.799C42.1294 25.7051 41.3074 26.4512 41.3074 27.9563V32.6992C41.3074 34.2043 42.1294 34.9505 43.799 34.9505H50.0849ZM54.4357 34.9505H56.5479V31.4471H60.9999L63.7697 34.9505H66.1095V34.862L63.3776 31.4471C64.8954 31.3839 65.6541 30.6376 65.6541 29.1958V27.9563C65.6541 26.4512 64.832 25.7051 63.1626 25.7051H54.4357V34.9505ZM63.5674 29.0694C63.5674 29.7523 63.2132 30.0938 62.4922 30.0938H56.5479V27.248H62.4922C63.2132 27.248 63.5674 27.5895 63.5674 28.2724V29.0694ZM70.0302 29.0313C69.4864 29.0313 69.1954 28.8164 69.1954 28.399V27.8931C69.1954 27.4884 69.4864 27.286 70.0302 27.286H77.5176V25.7051H69.3599C67.8674 25.7051 67.1213 26.3247 67.1213 27.5642V28.5128C67.1213 29.7523 67.8674 30.372 69.3599 30.372H74.6467C75.3929 30.372 75.7722 30.7135 75.7722 31.3965V32.3577C75.7722 33.0281 75.3929 33.3695 74.6467 33.3695H67.1466V34.9505H75.3169C77.0117 34.9505 77.8591 34.2043 77.8591 32.6992V31.2827C77.8591 29.7776 77.0117 29.0313 75.3169 29.0313H70.0302Z" fill="black"/>
<path fill-rule="evenodd" clip-rule="evenodd" d="M74.8538 9.32905C75.9172 9.32905 76.0231 9.359 77.1417 9.359C72.2934 5.76642 62.7115 6.06311 54.3624 6.17203C46.0148 -0.226548 34.8542 -1.97978 19.9345 2.4753C14.7566 3.59553 9.57869 4.71576 4.40078 5.83599C0.319775 4.39946 1.42451 5.15079 2.57111 8.22579C0.862277 8.2674 -0.0397188 9.97013 1.48824 11.1756C1.92393 11.1756 2.17716 11.1756 2.61271 11.1756C2.22658 9.41809 5.40374 8.93326 8.8817 8.63644C7.3756 8.42482 5.86952 8.21333 4.36342 8.00171C6.62879 7.55357 8.89416 7.10556 11.1594 6.65741C14.0719 6.14712 16.9845 5.63683 19.8971 5.12641C20.4323 5.46258 20.9676 5.79862 21.5028 6.13466C19.2 6.53298 16.8974 6.9313 14.5947 7.32949C29.2072 7.31704 43.8198 7.30459 58.4323 7.29213C55.9841 7.49116 53.9724 8.16324 52.1218 9.00984C64.8802 6.88453 69.163 7.65706 74.8538 9.32905ZM14.4253 7.99297C16.1383 7.99297 17.6696 8.76999 18.6866 9.99067H17.5826C16.6867 9.36867 15.5987 9.00415 14.4253 9.00415C13.252 9.00415 12.1639 9.36867 11.2679 9.99067H10.1641C11.181 8.76999 12.7124 7.99297 14.4253 7.99297ZM64.9462 7.99297C66.6592 7.99297 68.1905 8.76999 69.2074 9.99067H68.1036C67.2077 9.36867 66.1195 9.00415 64.9462 9.00415C63.7729 9.00415 62.6847 9.36867 61.7889 9.99067H60.6851C61.7019 8.76999 63.2332 7.99297 64.9462 7.99297Z" fill="#006633"/>
<path fill-rule="evenodd" clip-rule="evenodd" d="M52.4038 6.31982C42.0127 -0.404319 31.4769 0.450363 20.3525 3.19912C25.1258 8.10431 44.8464 6.30577 52.4038 6.31982Z" fill="#006633"/>
<path fill-rule="evenodd" clip-rule="evenodd" d="M56.8181 6.54699C46.4272 -0.177169 35.4564 0.586882 24.332 3.33564C29.1053 8.24085 49.2609 6.53281 56.8181 6.54699Z" fill="#3BA94A"/>
<path fill-rule="evenodd" clip-rule="evenodd" d="M62.9091 6.65071C52.4562 0.0234143 41.4929 0.889363 30.3945 3.74148C35.2132 8.60204 55.352 6.70677 62.9091 6.65071Z" fill="#8FC23F"/>
<path fill-rule="evenodd" clip-rule="evenodd" d="M45.3895 4.50787L35.0555 1.98584L36.0112 3.75177L27.9805 3.62098L38.3186 5.84725L37.2957 3.95703L45.3895 4.50787Z" fill="white"/>
<path d="M8.48828 41.9188V38.4949H9.72856C9.96111 38.4949 10.1808 38.5365 10.3875 38.6197C10.5942 38.7031 10.7745 38.8201 10.928 38.9708C11.0816 39.1216 11.2036 39.301 11.2942 39.5091C11.3845 39.7173 11.4297 39.9477 11.4297 40.2004C11.4297 40.453 11.3839 40.6849 11.2919 40.896C11.2001 41.1069 11.0766 41.2878 10.9215 41.4386C10.7665 41.5894 10.5863 41.7071 10.381 41.7918C10.1758 41.8764 9.95833 41.9188 9.72856 41.9188H8.48828ZM10.9604 40.1982C10.9604 40.0059 10.9301 39.8278 10.8699 39.6656C10.8096 39.5027 10.722 39.3621 10.6086 39.2428C10.4953 39.1237 10.3567 39.0304 10.1945 38.9644C10.0315 38.8983 9.84993 38.8653 9.64812 38.8653H8.96623V41.5485H9.64812C9.84132 41.5485 10.0178 41.5119 10.1794 41.4386C10.3401 41.3653 10.4794 41.267 10.5957 41.145C10.7119 41.0231 10.8024 40.8794 10.8656 40.7158C10.9287 40.5521 10.9604 40.3792 10.9604 40.1982ZM15.4187 41.9188H14.8417L14.0621 40.7818H13.1233V41.9188H12.641V38.4949H14.0858C14.2646 38.4949 14.4261 38.525 14.5711 38.5853C14.7169 38.6456 14.8402 38.7275 14.9421 38.8308C15.0448 38.9342 15.1238 39.0562 15.1798 39.197C15.2357 39.3375 15.2637 39.4898 15.2637 39.6534C15.2637 39.8975 15.1977 40.1121 15.0656 40.2973C14.9335 40.4826 14.7612 40.6168 14.5488 40.7L15.4187 41.9188ZM13.1275 40.3985H14.1396C14.243 40.3985 14.3364 40.3763 14.4196 40.3318C14.5029 40.2872 14.5747 40.2284 14.635 40.1551C14.6953 40.082 14.7412 39.9994 14.7728 39.9076C14.8043 39.8156 14.8202 39.7224 14.8202 39.6276C14.8202 39.5329 14.8022 39.4402 14.7663 39.3499C14.7304 39.2594 14.6801 39.1789 14.6156 39.1086C14.5509 39.0383 14.4742 38.9823 14.3852 38.9407C14.2961 38.8991 14.1985 38.8783 14.0923 38.8783H13.1275V40.3985ZM17.2458 41.9188H16.7592V38.4949H17.2458V41.9188ZM21.8249 38.4949L20.5026 41.9188H20.003L18.6378 38.4949H19.1976C19.3728 38.9859 19.548 39.4718 19.7232 39.9528C19.8982 40.4337 20.0734 40.9197 20.2486 41.4106C20.4208 40.9197 20.591 40.4337 20.7588 39.9528C20.9269 39.4718 21.097 38.9859 21.2693 38.4949H21.8249ZM23.4579 38.8653V40.011H25.0256V40.3813H23.4579V41.5485H25.2626V41.9188H22.98V38.4949H25.2626V38.8653H23.4579ZM29.8537 41.9188H29.3671V38.4949H29.8537V41.9188ZM34.5017 38.4949V41.9188H33.8873L32.0597 39.0117V41.9188H31.5818V38.4949H32.1975L34.0236 41.389V38.4949H34.5017ZM38.6716 38.4949V38.8567H37.3883V41.9188H36.9102V38.8567H35.6269V38.4949H38.6716ZM41.0801 38.4819C41.3557 38.4819 41.5984 38.5265 41.808 38.6155C42.0176 38.7046 42.1928 38.8266 42.3334 38.9816C42.4741 39.1367 42.5796 39.3197 42.6499 39.5307C42.7203 39.7417 42.7556 39.9707 42.7556 40.2177C42.7556 40.4732 42.7182 40.7072 42.6436 40.9197C42.5689 41.1321 42.4598 41.3151 42.3162 41.4688C42.1727 41.6224 41.9968 41.7415 41.7886 41.8262C41.5805 41.9109 41.3443 41.9533 41.0801 41.9533C40.8246 41.9533 40.5942 41.9109 40.389 41.8262C40.1837 41.7415 40.0085 41.6231 39.8636 41.4709C39.7185 41.3187 39.6065 41.1364 39.5275 40.9239C39.4487 40.7115 39.4092 40.4761 39.4092 40.2177C39.4092 39.9793 39.4479 39.7547 39.5254 39.5436C39.6029 39.3326 39.7142 39.1488 39.8592 38.9924C40.0042 38.8359 40.1793 38.7117 40.3846 38.6197C40.59 38.5279 40.8217 38.4819 41.0801 38.4819ZM41.0801 41.5398C41.2782 41.5398 41.4527 41.5075 41.6034 41.443C41.7542 41.3783 41.8805 41.2878 41.9825 41.1716C42.0844 41.0553 42.1611 40.9168 42.2128 40.7559C42.2645 40.5952 42.2903 40.4172 42.2903 40.2219C42.2903 40.0353 42.2667 39.8608 42.2193 39.6986C42.172 39.5364 42.0987 39.3957 41.9997 39.2766C41.9006 39.1575 41.775 39.0642 41.6229 38.9966C41.4706 38.9291 41.2897 38.8955 41.0801 38.8955C40.8935 38.8955 40.7255 38.9306 40.5763 39.001C40.427 39.0713 40.3007 39.1667 40.1972 39.2873C40.0939 39.4079 40.0142 39.5486 39.9583 39.7094C39.9022 39.8702 39.8743 40.041 39.8743 40.2219C39.8743 40.4172 39.9022 40.5959 39.9583 40.7582C40.0142 40.9204 40.0947 41.0596 40.1995 41.1758C40.3043 41.2922 40.4312 41.3819 40.5806 41.4451C40.7299 41.5082 40.8965 41.5398 41.0801 41.5398ZM47.2692 38.8653V40.011H48.8369V40.3813H47.2692V41.9188H46.7912V38.4949H49.0738V38.8653H47.2692ZM53.5408 38.4949V40.2477C53.5408 40.4832 53.5057 40.7042 53.4354 40.9111C53.365 41.1178 53.2616 41.2987 53.1253 41.4537C52.9888 41.6087 52.8195 41.7308 52.617 41.8197C52.4147 41.9087 52.1813 41.9533 51.9172 41.9533C51.6444 41.9533 51.4068 41.9087 51.2044 41.8197C51.002 41.7308 50.8333 41.6087 50.6984 41.4537C50.5634 41.2987 50.4623 41.1178 50.3947 40.9111C50.3272 40.7042 50.2936 40.4832 50.2936 40.2477V38.4949H50.7715V40.2477C50.7715 40.4574 50.8018 40.6426 50.862 40.8034C50.9223 40.9641 51.0041 41.0991 51.1075 41.2082C51.2109 41.3174 51.3322 41.3999 51.4715 41.4558C51.6107 41.5119 51.7593 41.5398 51.9172 41.5398C52.0838 41.5398 52.2366 41.509 52.3758 41.4472C52.5151 41.3855 52.6357 41.2979 52.7376 41.1845C52.8396 41.0712 52.9192 40.9355 52.9766 40.7775C53.0341 40.6196 53.0627 40.4431 53.0627 40.2477V38.4949H53.5408ZM57.6159 38.4949V38.8567H56.3325V41.9188H55.8544V38.8567H54.5711V38.4949H57.6159ZM61.8719 38.4949V40.2477C61.8719 40.4832 61.8368 40.7042 61.7664 40.9111C61.6961 41.1178 61.5927 41.2987 61.4564 41.4537C61.3199 41.6087 61.1506 41.7308 60.9481 41.8197C60.7457 41.9087 60.5124 41.9533 60.2483 41.9533C59.9755 41.9533 59.7379 41.9087 59.5355 41.8197C59.3331 41.7308 59.1644 41.6087 59.0295 41.4537C58.8944 41.2987 58.7933 41.1178 58.7258 40.9111C58.6583 40.7042 58.6247 40.4832 58.6247 40.2477V38.4949H59.1026V40.2477C59.1026 40.4574 59.1328 40.6426 59.1931 40.8034C59.2534 40.9641 59.3352 41.0991 59.4385 41.2082C59.542 41.3174 59.6633 41.3999 59.8026 41.4558C59.9418 41.5119 60.0903 41.5398 60.2483 41.5398C60.4149 41.5398 60.5677 41.509 60.7069 41.4472C60.8462 41.3855 60.9668 41.2979 61.0687 41.1845C61.1707 41.0712 61.2503 40.9355 61.3077 40.7775C61.3652 40.6196 61.3938 40.4431 61.3938 40.2477V38.4949H61.8719ZM65.848 41.9188H65.2709L64.4914 40.7818H63.5525V41.9188H63.0702V38.4949H64.5151C64.6938 38.4949 64.8554 38.525 65.0003 38.5853C65.1461 38.6456 65.2695 38.7275 65.3714 38.8308C65.4741 38.9342 65.553 39.0562 65.6091 39.197C65.665 39.3375 65.693 39.4898 65.693 39.6534C65.693 39.8975 65.627 40.1121 65.4949 40.2973C65.3627 40.4826 65.1905 40.6168 64.9781 40.7L65.848 41.9188ZM63.5568 40.3985H64.5689C64.6722 40.3985 64.7657 40.3763 64.8489 40.3318C64.9321 40.2872 65.0039 40.2284 65.0642 40.1551C65.1245 40.082 65.1705 39.9994 65.202 39.9076C65.2335 39.8156 65.2494 39.7224 65.2494 39.6276C65.2494 39.5329 65.2314 39.4402 65.1955 39.3499C65.1596 39.2594 65.1094 39.1789 65.0448 39.1086C64.9802 39.0383 64.9035 38.9823 64.8144 38.9407C64.7254 38.8991 64.6277 38.8783 64.5216 38.8783H63.5568V40.3985ZM67.563 38.8653V40.011H69.1307V40.3813H67.563V41.5485H69.3677V41.9188H67.0851V38.4949H69.3677V38.8653H67.563Z" fill="#006633"/>
<path d="M0.289062 39.9937H7.31509V40.3871H0.289062V39.9937Z" fill="#006633"/>
<path d="M69.9736 39.9934H78.0039V40.3868H69.9736V39.9934Z" fill="#006633"/>
</svg>
